<?xml version="1.0" encoding="utf-8"?>
<svg version="1.1" xmlns="http://www.w3.org/2000/svg" xmlns:xlink="http://www.w3.org/1999/xlink" x="0px" y="0px"
	 viewBox="0 0 1293 325" style="enable-background:new 0 0 1293 325;" xml:space="preserve">
<style type="text/css">
	.st0{fill:#41A7F9;}
	.st1{fill-rule:evenodd;clip-rule:evenodd;fill:url(#SVGID_1_);}
	.st2{fill-rule:evenodd;clip-rule:evenodd;fill:url(#SVGID_2_);filter:url(#Adobe_OpacityMaskFilter);}
	.st3{mask:url(#mask0_17_1844_1_);}
	.st4{fill:#FCFFFE;}
	.st5{fill:#FFFFFF;}
	.st6{fill:#DFDFDF;}
	.st7{fill:none;stroke:url(#SVGID_3_);stroke-width:11.2008;stroke-linecap:round;}
	.st8{fill:url(#SVGID_4_);}
	.st9{fill:url(#SVGID_5_);}
	.st10{fill:none;stroke:#030F13;stroke-width:11.2008;}
	.st11{fill:none;stroke:url(#SVGID_6_);stroke-width:11.2008;stroke-linecap:round;}
	.st12{fill:url(#SVGID_7_);}
	.st13{fill:url(#SVGID_8_);}
	.st14{fill:none;stroke:#030F13;stroke-width:11.2008;stroke-linecap:round;}
	.st15{fill:url(#SVGID_9_);}
	.st16{fill:url(#SVGID_10_);}
	.st17{fill:url(#SVGID_11_);}
	.st18{fill:url(#SVGID_12_);}
	.st19{fill:none;stroke:#030F13;stroke-width:6.3193;}
	.st20{fill:none;stroke:#030F13;stroke-width:8.8006;}
	.st21{fill:#030F13;}
</style>
<path class="st0" d="M221.5,297.4c0,0,55.8,24.7,128.2,6.9c67.4-23.9,94.8-109.2,201.1-104.2c-60.2-31.2-114.6-10.6-155.1,24.6
	C360.6,255.2,325.4,294.1,221.5,297.4z"/>
<path class="st0" d="M355,246.6c0,0-43,33-75.3,39.2c-32.3,6.2-91.2,9.8-154.8-34.7C55.2,202.2,2.8,200.9,2.8,200.9
	s46.4-17.5,115.1,13.2c68.7,30.6,98.8,41.3,143.7,42.9C306.5,258.6,355,246.6,355,246.6z"/>
<linearGradient id="SVGID_1_" gradientUnits="userSpaceOnUse" x1="141.6754" y1="274.705" x2="463.9394" y2="61.6254" gradientTransform="matrix(1 0 0 -1 0 326)">
	<stop  offset="0" style="stop-color:#E1A253"/>
	<stop  offset="1" style="stop-color:#9D6024"/>
</linearGradient>
<path class="st1" d="M489.8,178.4c-43.1-0.4-66.3,15.5-90.5,32.2c-35.8,24.7-73.9,50.9-182,28.2c-42-8.9-66-18.3-122.1-40.4
	c-8.2-3.2-17.1-6.7-26.9-10.6C80.8,82,170.7,0,279.8,0C385.6,0,473.4,77.2,489.8,178.4z"/>
<defs>
	<filter id="Adobe_OpacityMaskFilter" filterUnits="userSpaceOnUse" x="145.3" y="45.4" width="280.6" height="214.2">
		<feColorMatrix  type="matrix" values="1 0 0 0 0  0 1 0 0 0  0 0 1 0 0  0 0 0 1 0"/>
	</filter>
</defs>
<mask maskUnits="userSpaceOnUse" x="145.3" y="45.4" width="280.6" height="214.2" id="mask0_17_1844_1_">

		<linearGradient id="SVGID_2_" gradientUnits="userSpaceOnUse" x1="140.9727" y1="273.8368" x2="463.7907" y2="60.7816" gradientTransform="matrix(1 0 0 -1 0 326)">
		<stop  offset="0" style="stop-color:#E1A253"/>
		<stop  offset="1" style="stop-color:#9D6024"/>
	</linearGradient>
	<path class="st2" d="M68.1,190.1l0.6-2.4c13.5,5.3,25.3,10,36.1,14.4c42.9,17.2,68.9,27.6,112.5,36.7
		c115.8,24,152.3-3.1,186.3-28.3c22.5-16.7,43.8-32.5,86.2-32.1C473.4,77.2,385.6,0,279.8,0C169.9,0,79.5,83.2,68.1,190.1z"/>
</mask>
<g class="st3">
	<path class="st4" d="M152.6,172c0-4.4,3.6-8,8-8h255c4.4,0,8,3.6,8,8l-0.1,76c0,4.4-3.6,8-8,8H160.6c-4.4,0-8-3.6-8-8V172z"/>
	<path class="st5" d="M252.3,59.1c18.4-18.2,48-18.2,66.4,0l104.8,103.6c4.6,4.5,1.4,12.3-5.1,12.3H152.6c-6.4,0-9.6-7.8-5.1-12.3
		L252.3,59.1z"/>
	<g>
		<path class="st6" d="M375.9,145.1c16.4,25-7.5,82.6-7.6,106.8h53.2v-84.4l-96.8-98l-2.4,8.8C329.9,89.5,359.5,120.1,375.9,145.1z"
			/>
	</g>

		<linearGradient id="SVGID_3_" gradientUnits="userSpaceOnUse" x1="248.8432" y1="113.1298" x2="152.4362" y2="117.9297" gradientTransform="matrix(1 0 0 -1 0 326)">
		<stop  offset="0" style="stop-color:#B75F03"/>
		<stop  offset="0.48" style="stop-color:#E0822B"/>
		<stop  offset="1" style="stop-color:#703D18"/>
	</linearGradient>
	<path class="st7" d="M165.4,219.9c12.4,16,22.5,11,37.2-8.8c18.4-24.8,32.4-24,40.4-6.4c10.3,22.6-20.4,34.8-29.2,12.8
		 M152.6,210.3c12-1.6,23.6-38,48.4-4.4"/>

		<linearGradient id="SVGID_4_" gradientUnits="userSpaceOnUse" x1="227.852" y1="109.3365" x2="227.852" y2="122.1375" gradientTransform="matrix(1 0 0 -1 0 326)">
		<stop  offset="0" style="stop-color:#DA7D25"/>
		<stop  offset="1" style="stop-color:#9B571F"/>
	</linearGradient>
	<circle class="st8" cx="227.9" cy="210.3" r="6.4"/>

		<linearGradient id="SVGID_5_" gradientUnits="userSpaceOnUse" x1="180.329" y1="109.3365" x2="180.329" y2="122.1375" gradientTransform="matrix(1 0 0 -1 0 326)">
		<stop  offset="0" style="stop-color:#DA7D25"/>
		<stop  offset="1" style="stop-color:#9B571F"/>
	</linearGradient>
	<circle class="st9" cx="180.3" cy="210.3" r="6.4"/>
	<path class="st10" d="M314.7,63.1l104.8,103.6c1,1,0.3,2.7-1.1,2.7H152.6c-1.4,0-2.1-1.7-1.1-2.7L256.2,63.1
		C272.4,47,298.5,47,314.7,63.1z"/>

		<linearGradient id="SVGID_6_" gradientUnits="userSpaceOnUse" x1="321.7487" y1="113.1287" x2="418.1558" y2="117.9297" gradientTransform="matrix(1 0 0 -1 0 326)">
		<stop  offset="0" style="stop-color:#B75F03"/>
		<stop  offset="0.48" style="stop-color:#E0822B"/>
		<stop  offset="1" style="stop-color:#703D18"/>
	</linearGradient>
	<path class="st11" d="M405.1,219.9c-12.4,16-22.5,11-37.2-8.8c-18.4-24.8-32.4-24-40.4-6.4c-10.3,22.6,20.4,34.8,29.2,12.8
		 M417.9,210.3c-12-1.6-23.6-38-48.4-4.4"/>

		<linearGradient id="SVGID_7_" gradientUnits="userSpaceOnUse" x1="300.4005" y1="313.1991" x2="300.4005" y2="326" gradientTransform="matrix(-1 0 0 -1 643.141 529.863)">
		<stop  offset="0" style="stop-color:#DA7D25"/>
		<stop  offset="1" style="stop-color:#9B571F"/>
	</linearGradient>
	<circle class="st12" cx="342.7" cy="210.3" r="6.4"/>

		<linearGradient id="SVGID_8_" gradientUnits="userSpaceOnUse" x1="300.4005" y1="313.1991" x2="300.4005" y2="326" gradientTransform="matrix(-1 0 0 -1 690.664 529.863)">
		<stop  offset="0" style="stop-color:#DA7D25"/>
		<stop  offset="1" style="stop-color:#9B571F"/>
	</linearGradient>
	<circle class="st13" cx="390.3" cy="210.3" r="6.4"/>
	<path class="st10" d="M151,251.7v-81.3c0-0.5,0.4-0.9,0.9-0.9h267.5c0.5,0,0.9,0.4,0.9,0.9l-0.1,81.3c0,1.3-1.1,2.4-2.4,2.4H153.7
		C152.4,254.1,151.3,253,151,251.7z"/>
	<path class="st14" d="M284.7,103.9v63.2"/>
	<path class="st14" d="M216.8,167.2l34.5-59.7"/>
	<path class="st14" d="M318.8,108l34,59"/>

		<linearGradient id="SVGID_9_" gradientUnits="userSpaceOnUse" x1="284.657" y1="258.1465" x2="284.657" y2="234.9447" gradientTransform="matrix(1 0 0 -1 0 326)">
		<stop  offset="0" style="stop-color:#9D5C00"/>
		<stop  offset="1" style="stop-color:#FFAF40"/>
	</linearGradient>
	<ellipse class="st15" cx="284.7" cy="79.5" rx="5.6" ry="11.6"/>

		<linearGradient id="SVGID_10_" gradientUnits="userSpaceOnUse" x1="145.7091" y1="390.3824" x2="145.7091" y2="367.1806" gradientTransform="matrix(0.848 -0.5299 -0.5299 -0.848 379.1103 474.7634)">
		<stop  offset="0" style="stop-color:#9D5C00"/>
		<stop  offset="1" style="stop-color:#FFAF40"/>
	</linearGradient>
	<path class="st16" d="M295.8,66.5c2.6-1.6,7.5,1.4,10.9,6.9c3.4,5.4,4,11.2,1.4,12.8c-2.6,1.6-7.5-1.4-10.9-6.9
		C293.8,73.9,293.2,68.1,295.8,66.5z"/>

		<linearGradient id="SVGID_11_" gradientUnits="userSpaceOnUse" x1="465.243" y1="233.7378" x2="465.243" y2="210.536" gradientTransform="matrix(0.8531 0.5217 0.5217 -0.8531 -244.9765 23.4399)">
		<stop  offset="0" style="stop-color:#9D5C00"/>
		<stop  offset="1" style="stop-color:#FFAF40"/>
	</linearGradient>
	<path class="st17" d="M273.9,66.8c2.6,1.6,2.1,7.4-1.3,12.8s-8.2,8.6-10.8,7c-2.6-1.6-2.1-7.4,1.3-12.8
		C266.4,68.3,271.2,65.2,273.9,66.8z"/>

		<linearGradient id="SVGID_12_" gradientUnits="userSpaceOnUse" x1="270.7149" y1="135.8839" x2="299.9169" y2="73.8789" gradientTransform="matrix(1 0 0 -1 0 326)">
		<stop  offset="0" style="stop-color:#FEDE85"/>
		<stop  offset="1" style="stop-color:#BB6726"/>
	</linearGradient>
	<path class="st18" d="M255.1,190.3c0-2.2,1.8-4,4-4h52.8c2.2,0,4,1.8,4,4v63.2h-60.8V190.3z"/>
	<path class="st19" d="M259.2,246.4l26.2-26.2l-27.1-27.1 M311.9,246.4l-26.2-26.2l27.1-27.1"/>

		<rect x="267.8" y="202.2" transform="matrix(0.7071 -0.7071 0.7071 0.7071 -72.0242 266.6441)" class="st19" width="36.1" height="36.1"/>
	<path class="st20" d="M259.3,253.9V191h52.2v62.9H259.3z"/>
	<path class="st14" d="M246.3,73.5c13.6,9.7,48.4,23.2,78.4,0"/>
</g>
<path class="st21" d="M577.2,203.3l0.2-16.9l0.2-31.5c0.1-4.6,0.2-9.3,0.2-14.2c0-4.9,0-9.9,0-15c0-5.1,0-9.7,0-13.7
	s0.1-8.5,0.4-13.5v-0.9c0.1-1.4,0.2-2.9,0.2-4.3c0.1-1.6,0.2-3.1,0.2-4.7c0.1-2.6,0.9-5.4,2.4-8.4c1-2,2.5-3.7,4.5-5.1
	c2.3-1.1,4.5-1.7,6.6-1.7c1.1,0,2.1,0.1,3,0.2c1,0,1.9,0.1,2.8,0.2c1.9,0.3,3.5,1.1,4.9,2.6c0.9,0.7,1.6,1.9,2.4,3.4
	c0.3,0.9,0.5,1.7,0.6,2.6c0.3,0.7,0.5,1.5,0.6,2.4c0.1,1,0.2,1.9,0.2,2.8c0.1,0.9,0.2,1.7,0.2,2.6c0,1-0.1,1.9-0.2,2.8
	c0,0.7,0,1.5,0,2.4v3.6l-1.3,111.3v2.1c0,0.4-0.1,1-0.2,1.7c0,0.6-0.1,1.3-0.2,2.1c-0.3,0.7-0.6,1.5-0.9,2.4
	c-0.1,0.7-0.4,1.5-0.6,2.4c-0.4,0.7-0.9,1.4-1.5,2.1c-0.4,0.6-1,1.1-1.7,1.7c-1.1,1.1-3,1.9-5.6,2.4c-3.9,0.9-7.5,0.5-10.9-1.1
	c-1.7-1.1-2.9-2.6-3.6-4.3c-0.4-0.4-0.6-0.9-0.6-1.3c-0.1-0.3-0.3-0.5-0.4-0.6c-0.1-0.1-0.3-0.4-0.4-0.6c-0.3-0.7-0.5-1.4-0.6-2.1
	c-0.1-0.9-0.2-1.7-0.2-2.6c-0.1-0.7-0.3-1.4-0.4-2.1c0-0.7-0.1-1.4-0.2-2.1c-0.1-1.1-0.1-2.4,0-3.6V203.3z M758,209.7
	c-0.1,2.4-0.5,5-1.1,7.7c-0.4,2.7-1.8,4.9-4.1,6.6c-1.7,1.4-3.6,2.3-5.8,2.6c-2.1,0.3-4.3,0.1-6.4-0.4c-2-0.4-3.9-1.1-5.8-2.1
	c-1.9-1.1-3.4-2.5-4.5-4.1c-4.9-6-9.4-12.1-13.5-18.4c-4-6.4-8.1-12.9-12.2-19.3l-18-27.2c-2.4-3.9-5-8.1-7.7-12.9
	c-2.7-4.9-5.5-9.4-8.4-13.5l-0.6,81.9v1.9c0,2.3-0.4,4.6-1.3,6.9c-0.7,2.1-2,4-3.9,5.6c-1.4,1.1-3.3,1.9-5.6,2.4
	c-3.6,0.7-6.6,0.5-9-0.6c-2.3-1.1-4.1-2.7-5.6-4.7c-1.3-2-2.2-4.3-2.8-6.9c-0.4-2.7-0.5-5.4-0.2-7.9v-3.6l0.4-16.7l0.2-31.1
	c0.1-4.6,0.2-9.2,0.2-13.9c0-4.9,0-9.8,0-14.8c-0.1-6.1-0.1-12.6,0-19.5c0.3-6.9,0.6-13.3,0.9-19.3c0.3-3.3,1.1-6.1,2.4-8.4
	c0.6-2,2.1-3.7,4.5-5.1c1.6-1,3.6-1.6,6-1.9c2.6-0.3,4.8-0.2,6.6,0.2c0.7,0.3,1.4,0.6,2.1,1.1c0.7,0.3,1.4,0.6,2.1,1.1
	c0.7,0.6,1.4,1.1,1.9,1.7c0.7,0.6,1.4,1.2,1.9,1.9c0.7,0.7,1.4,1.5,1.9,2.4c0.6,0.7,1.1,1.4,1.7,2.1c0.4,0.9,0.9,1.6,1.3,2.4
	c0.4,0.7,0.9,1.4,1.5,2.1l2.4,3.4l49.5,78V155c0-4.6-0.1-9.2-0.2-13.9c0-4.9-0.1-9.9-0.2-15c0-6,0-12.4,0-19.3
	c0.1-6.9,0.4-13.3,0.6-19.3c0-2.4,0.7-5.2,2.1-8.4c0.7-1.9,1.9-3.4,3.6-4.5c1.7-1.1,3.6-1.9,5.8-2.4c2.1-0.4,4.3-0.4,6.4,0
	c2.1,0.4,4,1.3,5.6,2.6c0.4,0.4,0.9,0.9,1.3,1.5c0.4,0.6,0.8,1.2,1.1,1.9c0.7,1.9,1.1,3.5,1.3,4.9c0.4,2,0.6,3.8,0.6,5.4
	c0,17.9,0,36.1,0,54.7c0.1,18.6,0.3,36.8,0.4,54.7c0,2,0.1,4,0.2,6C758.2,205.8,758.2,207.7,758,209.7z M886.2,80.6
	c1.3,1.7,2.1,3.7,2.4,6c0,0.9-0.1,1.7-0.2,2.6c0,0.7-0.1,1.4-0.2,2.1c-0.1,1.6-1.1,3.1-2.8,4.5c-1,0.7-2.3,1.4-3.9,2.1
	c-0.9,0.3-1.8,0.5-2.8,0.6c-0.9,0-1.9,0.1-3,0.2c-0.9,0.3-1.8,0.4-2.8,0.4c-1,0-2,0-3,0h-9.6l-44.8,0.2v0.6l-0.2,34.9
	c1.1,0,2.4,0,3.6,0c1.4,0,3.1-0.1,5.1-0.2c5.7,0,10.8,0,15.2,0c4.6,0,9.6,0.1,15,0.2h1.3c1.6,0,3.1,0.1,4.7,0.2c1.7,0,3.4,0,5.1,0
	c1.6,0.1,3.1,0.4,4.7,0.6c1.6,0.1,3.1,0.5,4.7,1.1c2.6,0.9,4.4,2.2,5.6,4.1c1.6,1.9,2.4,3.8,2.4,5.8c0,0.9,0,1.7,0,2.6
	c0,0.7-0.1,1.5-0.4,2.4c-0.1,1.1-1.1,2.6-2.8,4.3c-1.1,1-2.5,1.6-4.1,1.9c-0.7,0.3-1.6,0.6-2.6,0.9c-0.9,0.1-1.8,0.3-2.8,0.4
	c-1,0.1-2,0.3-3,0.4c-0.9,0-1.9,0-3,0h-9.9l-39.4,0.2l-0.6,49.7v1.7c0,0.7-0.1,1.4-0.2,2.1c0,0.6-0.1,1.2-0.2,1.9
	c-0.3,0.7-0.6,1.5-0.9,2.4c-0.1,0.7-0.4,1.4-0.6,2.1c-1,2-1.9,3.4-2.8,4.1c-1.6,1.1-3.5,1.9-5.8,2.4c-3.9,0.9-7.5,0.4-10.9-1.3
	c-0.7-0.4-1.4-0.9-2.1-1.5c-0.6-0.7-1.1-1.6-1.5-2.6c-0.3-0.6-0.4-1-0.4-1.3l-0.6-1.3c-0.4-0.7-0.7-1.4-0.9-2.1
	c-0.1-0.9-0.3-1.6-0.4-2.4c0-0.7-0.1-1.4-0.2-2.1c0-0.7-0.1-1.4-0.2-2.1c-0.1-1.1-0.1-2.3,0-3.4v-3.4l0.2-16.7l0.2-30.9
	c0.1-4.6,0.2-9.2,0.2-13.9c0-4.7,0-9.6,0-14.6c-0.1-5.1-0.2-9.7-0.2-13.7c0.1-4,0.4-8.4,0.6-13.1v-1.1c0.1-1.6,0.2-3,0.2-4.3
	c0-1.4,0.1-2.9,0.4-4.3c0.3-3.1,1-5.9,2.1-8.4c1-2.4,2.4-4.1,4.3-5.1c2.1-1.3,4.4-1.9,6.9-1.9c1.1,0,2.1,0.1,2.8,0.2v-0.2
	c2.6,0,4.6,0,6.2,0c1.6,0,3.1,0,4.5,0c1.4,0,3,0,4.7,0c1.7-0.1,4-0.2,6.9-0.2c11.4-0.1,22.7-0.1,33.9,0h1.1c1.6,0.1,3.1,0.2,4.7,0.2
	c1.7,0,3.4,0.1,5.1,0.2c1.6,0,3.1,0.2,4.7,0.6c1.6,0.3,3.1,0.7,4.7,1.3C883.1,77.7,884.9,78.9,886.2,80.6z M920.1,203.3l0.2-16.9
	l0.2-31.5c0.1-4.6,0.2-9.3,0.2-14.2c0-4.9,0-9.9,0-15c0-5.1,0-9.7,0-13.7s0.1-8.5,0.4-13.5v-0.9c0.1-1.4,0.2-2.9,0.2-4.3
	c0.1-1.6,0.2-3.1,0.2-4.7c0.1-2.6,0.9-5.4,2.4-8.4c1-2,2.5-3.7,4.5-5.1c2.3-1.1,4.5-1.7,6.6-1.7c1.1,0,2.1,0.1,3,0.2
	c1,0,1.9,0.1,2.8,0.2c1.9,0.3,3.5,1.1,4.9,2.6c0.9,0.7,1.6,1.9,2.4,3.4c0.3,0.9,0.5,1.7,0.6,2.6c0.3,0.7,0.5,1.5,0.6,2.4
	c0.1,1,0.2,1.9,0.2,2.8c0.1,0.9,0.2,1.7,0.2,2.6c0,1-0.1,1.9-0.2,2.8c0,0.7,0,1.5,0,2.4v3.6l-1.3,111.3v2.1c0,0.4-0.1,1-0.2,1.7
	c0,0.6-0.1,1.3-0.2,2.1c-0.3,0.7-0.6,1.5-0.9,2.4c-0.1,0.7-0.4,1.5-0.6,2.4c-0.4,0.7-0.9,1.4-1.5,2.1c-0.4,0.6-1,1.1-1.7,1.7
	c-1.1,1.1-3,1.9-5.6,2.4c-3.9,0.9-7.5,0.5-10.9-1.1c-1.7-1.1-2.9-2.6-3.6-4.3c-0.4-0.4-0.6-0.9-0.6-1.3c-0.1-0.3-0.3-0.5-0.4-0.6
	c-0.1-0.1-0.3-0.4-0.4-0.6c-0.3-0.7-0.5-1.4-0.6-2.1c-0.1-0.9-0.2-1.7-0.2-2.6c-0.1-0.7-0.3-1.4-0.4-2.1c0-0.7-0.1-1.4-0.2-2.1
	c-0.1-1.1-0.1-2.4,0-3.6V203.3z M1010.6,226c0,3.7-1.4,6.9-4.1,9.4c-2.6,2.7-5.7,4.1-9.4,4.1s-6.9-1.4-9.6-4.1
	c-2.6-2.6-3.9-5.7-3.9-9.4s1.3-6.9,3.9-9.6c2.7-2.7,5.9-4.1,9.6-4.1s6.9,1.4,9.4,4.1C1009.2,219.1,1010.6,222.3,1010.6,226z
	 M1141.6,210.6c1.2,2.1,1.2,4.3,0.2,6.4c-0.7,2.3-1.9,4-3.7,5.1c-0.9,0.7-1.6,1.4-2.4,1.9c-0.7,0.4-1.5,0.8-2.3,1.1
	c-1.6,0.9-3.4,1.1-5.6,0.9c-0.9,0-1.6-0.1-2.4-0.4c-0.7-0.3-1.4-0.6-2.1-1.1c-0.7-0.4-1.5-0.9-2.4-1.3c-0.7-0.6-1.4-1.1-2.1-1.7
	c-0.9-0.7-1.7-1.4-2.4-1.9c-0.7-0.6-1.4-1.2-1.9-1.9c-0.7-0.7-1.4-1.4-1.9-2.1c-0.6-0.7-1.1-1.4-1.7-1.9l-2.6-2.8l-41.2-43.1
	l0.6,43.1v1.9c0,0.6-0.1,1.2-0.2,1.9c-0.1,0.6-0.3,1.2-0.4,1.9c-0.4,1.9-0.9,3.5-1.5,4.9c-0.3,0.9-0.7,1.6-1.3,2.1
	c-0.4,0.6-0.9,1.1-1.5,1.7c-1.6,1.4-3.4,2.2-5.6,2.4c-2.2,0.7-4.2,0.9-6,0.6c-1.7-0.1-3.5-0.6-5.4-1.5c-1.4-0.9-2.7-2.3-3.9-4.3
	c-0.3-0.6-0.5-0.9-0.7-1.1c0-0.1-0.1-0.6-0.4-1.5c-0.9-1.4-1.3-2.9-1.3-4.3c-0.1-0.9-0.3-1.6-0.4-2.4c0-0.7-0.1-1.5-0.2-2.4
	c-0.2-0.6-0.2-1.1-0.2-1.7s0-1.1,0-1.7c0.1-0.7,0.2-1.3,0.2-1.7c0-0.6,0-1.2,0-1.9l-0.2-16.9l-0.2-31.5c0-9.1-0.2-19-0.7-29.6
	c-0.1-5.1-0.2-9.7-0.2-13.7c0-4,0.1-8.5,0.2-13.5v-0.9c0.3-1.6,0.4-3.1,0.4-4.5c0-1.6,0.1-3.1,0.2-4.5c0-2.9,0.6-5.7,1.9-8.6
	c0.8-2.1,2.3-3.9,4.5-5.1c1.1-0.7,2.2-1.1,3.2-1.3c1.2-0.3,2.4-0.6,3.7-0.9c1,0,1.9,0.1,2.8,0.2c1,0.1,1.9,0.3,2.8,0.4
	c1.9,0.3,3.6,1.1,5.2,2.4c0.4,0.4,0.8,0.9,1.1,1.5c0.4,0.6,0.8,1.3,1.1,2.1c0.7,1.1,1.2,2.8,1.5,4.9c0.2,0.9,0.2,1.7,0.2,2.6
	c0.1,0.9,0.2,1.8,0.2,2.8v8.8l0.2,26.2c2.3-2,4.5-4.1,6.6-6.2c2.3-2.1,4.5-4.4,6.6-6.9c3.9-4,7.6-7.9,11.4-11.6
	c3.9-3.9,7.7-7.6,11.6-11.4l0.6-0.6c1.1-1.1,2.3-2.2,3.4-3.2c1.3-1.1,2.5-2.2,3.7-3.2c2.1-2.4,4.8-4.1,7.9-5.1
	c2-1.3,4.4-1.8,7.1-1.5c1.3,0.1,2.4,0.4,3.4,0.9c1.2,0.4,2.2,1,3.2,1.7c0.7,0.7,1.4,1.4,2.1,1.9c0.7,0.4,1.3,1,1.7,1.7
	c1.1,1,1.9,2.5,2.1,4.5c0,1.6-0.3,3-0.9,4.3c-0.4,0.7-0.8,1.4-1.3,2.1c-0.4,0.7-0.9,1.4-1.5,2.1c-0.7,0.9-1.4,1.6-1.9,2.4
	c-0.6,0.7-1.2,1.4-1.9,2.1c-0.6,0.7-1.2,1.4-1.9,1.9c-0.6,0.6-1.1,1.2-1.7,1.9l-2.8,2.8l-40.1,40.9c2.1,2.1,4.3,4.4,6.6,6.9
	c2.4,2.3,4.7,4.6,6.9,6.9c2.2,2.1,4.2,4.2,6,6.2c1.9,1.9,3.4,3.4,4.7,4.7c3.9,4,7.6,8,11.2,12c3.6,3.9,7.1,7.8,10.5,11.8l0.7,0.6
	c1.1,1.1,2.2,2.4,3.2,3.6c1,1.1,1.9,2.3,2.8,3.4C1139.3,205.1,1140.8,207.7,1141.6,210.6z M1275.3,105.7c-2,3-4.1,5.9-6.2,8.8
	c-2.1,2.9-4.2,5.7-6.2,8.6c-9,12.9-18,25.7-27,38.4c-8.9,12.7-17.7,25.6-26.6,38.6c2.1,0,3.8,0,4.9,0c1.1,0,2.1,0,2.8,0
	c0.9,0,1.8,0,2.8,0s2.5,0.1,4.5,0.2c2,0,4.7,0,8.2,0c3.6,0,8.3,0,14.2,0c3.7,0,7.4,0,10.9,0c3.7,0,7.4,0.1,11.2,0.4
	c0.7,0.1,1.5,0.3,2.4,0.4c0.9,0,1.6,0.1,2.4,0.4l1.3,0.6c0,0,0.4,0.1,1.3,0.4c1.7,1,3.1,2.1,4.3,3.4c2,2.9,2.6,6.1,1.7,9.6
	c-0.1,1-0.5,1.9-1.1,2.8c-0.4,0.7-0.9,1.4-1.5,1.9c-1.1,1.1-2.5,1.9-4.1,2.4c-1.6,0.9-3.2,1.4-4.9,1.5c-0.7,0.1-1.4,0.3-2.2,0.4
	c-0.6,0-1.2,0-1.9,0h-77.8c-0.9,0-1.7,0-2.6,0s-1.7-0.1-2.6-0.2c-0.4-0.1-0.9-0.2-1.3-0.2c-0.3,0-0.6-0.1-0.9-0.2
	c-0.6-0.1-1.1-0.2-1.7-0.2c-0.4-0.1-1-0.3-1.7-0.4c-1.6-0.9-2.8-1.6-3.6-2.4c-1.7-1.3-2.6-2.6-2.8-4.1v-0.2
	c-0.3-0.7-0.5-1.4-0.6-1.9c0-0.6,0.1-1.3,0.2-2.1c0-0.1-0.1-0.2-0.2-0.2c0-0.1,0-0.4,0-0.6c0-0.9,0.1-1.6,0.4-2.4
	c0.3-0.9,0.6-1.7,0.9-2.6c0.3-0.4,0.5-0.9,0.6-1.3c0.3-0.6,0.6-1.1,1.1-1.5c0.3-0.7,0.6-1.4,1.1-2.1c0.6-0.7,1-1.4,1.3-2.1
	c0.3-0.6,0.6-1.1,0.8-1.7c0.4-0.7,0.8-1.3,1.1-1.7c0.6-0.6,1-1.1,1.3-1.5c0.4-0.6,0.8-1.1,1.1-1.7l11.1-15.7l19.9-28.9
	c3.1-4.1,6.2-8.4,9.2-12.9c3.1-4.6,6.4-9.3,9.7-14.2c2.4-3.7,4.6-6.9,6.6-9.6c2-2.9,4.2-5.9,6.4-9.2c-5,0-9.7,0-14.1,0
	c-4.3,0-8.6,0-12.9,0c-4.3-0.1-8.8-0.2-13.5-0.2c-4.6-0.1-9.6-0.3-15.2-0.4c-2-0.1-4.4-0.4-7.1-0.9c-2.6-0.6-4.7-1.6-6.4-3.2
	c-1.6-1.4-2.5-2.9-2.8-4.5c-0.4-1.4-0.6-3.1-0.6-5.1c0-2.3,0.6-4.3,1.9-6c1.4-1.9,3.2-3.2,5.4-4.1c3-1.1,5.9-1.7,8.8-1.7
	c1.6-0.1,3.1-0.2,4.7-0.2c1.6,0,3.1-0.1,4.5-0.4h1.1c4.1-0.1,10.3-0.1,18.4,0c8.3,0,18.7,0,31.1,0c1.6,0,3.2,0,4.9,0
	c1.7-0.1,3.4-0.1,4.9,0c3.3,0.3,6.7,0.4,10.3,0.2c3.7-0.1,7.1,0.6,10.1,2.4c0.8,0.4,1.6,0.9,2.4,1.5c0.7,0.6,1.5,1.1,2.3,1.5
	c1.7,1.6,2.5,3.4,2.4,5.6c0,2.1-0.5,4.4-1.5,6.6c-0.9,2.3-2,4.5-3.4,6.6C1277.5,102.5,1276.3,104.3,1275.3,105.7z"/>
</svg>
