<svg width="1293" height="325" viewBox="0 0 1293 325" fill="none" xmlns="http://www.w3.org/2000/svg">
<path d="M221.461 297.373C221.461 297.373 277.285 322.058 349.674 304.259C417.065 280.316 444.469 195.079 550.804 200.075C490.586 168.828 436.222 189.451 395.697 224.643C360.559 255.157 325.358 294.134 221.461 297.373Z" fill="#41A7F9"/>
<path d="M354.973 246.623C354.973 246.623 311.95 279.577 279.66 285.795C247.37 292.012 188.491 295.63 124.907 251.051C55.2098 202.191 2.79064 200.936 2.79064 200.936C2.79064 200.936 49.2368 183.483 117.893 214.111C186.548 244.739 216.707 255.437 261.604 256.998C306.502 258.56 354.973 246.623 354.973 246.623Z" fill="#41A7F9"/>
<path fill-rule="evenodd" clip-rule="evenodd" d="M489.846 178.354C446.746 177.915 423.573 193.89 399.349 210.59C363.548 235.27 325.451 261.534 217.345 238.742C175.367 229.891 151.37 220.443 95.2654 198.354C87.0489 195.118 78.1437 191.612 68.3926 187.797C80.7896 82.0499 170.703 0 279.78 0C385.588 0 473.364 77.2051 489.846 178.354Z" fill="url(#paint0_linear_17_1843)"/>
<mask id="mask0_17_1843" style="mask-type:alpha" maskUnits="userSpaceOnUse" x="66" y="0" width="424" height="249">
<path fill-rule="evenodd" clip-rule="evenodd" d="M68.1367 190.071L68.7076 187.659C82.1834 192.935 94.0393 197.696 104.826 202.027C147.705 219.244 173.684 229.676 217.345 238.742C333.153 262.79 369.686 235.66 403.621 210.459C426.086 193.777 447.412 177.94 489.844 178.355C473.363 77.2056 385.587 0 279.779 0C169.921 0 79.5019 83.2286 68.1367 190.071Z" fill="url(#paint1_linear_17_1843)"/>
</mask>
<g mask="url(#mask0_17_1843)">
<path d="M151 172.001C151 167.582 154.582 164 159.001 164H415.989C420.411 164 423.995 167.589 423.989 172.011L423.888 248.01C423.882 252.425 420.302 256 415.887 256H159.001C154.582 256 151 252.418 151 247.999V172.001Z" fill="#FCFFFE"/>
<path d="M252.257 59.0963C270.649 40.8995 300.262 40.8995 318.655 59.0962L423.415 162.742C427.989 167.267 424.784 175.062 418.351 175.062H152.56C146.127 175.062 142.923 167.267 147.496 162.742L252.257 59.0963Z" fill="white"/>
<g filter="url(#filter0_f_17_1843)">
<path d="M375.863 145.06C392.241 170.061 368.396 227.685 368.263 251.868H421.467V167.461L324.659 69.4541L322.259 78.2548C329.886 89.5401 359.485 120.058 375.863 145.06Z" fill="#DFDFDF"/>
</g>
<path d="M165.448 219.865C177.849 235.866 187.965 230.857 202.651 211.064C221.052 186.262 235.053 187.062 243.054 204.663C253.329 227.27 222.652 239.466 213.851 217.464M152.647 210.264C164.648 208.664 176.249 172.261 201.051 205.864" stroke="url(#paint2_linear_17_1843)" stroke-width="11.2008" stroke-linecap="round"/>
<circle cx="227.852" cy="210.263" r="6.40047" fill="url(#paint3_linear_17_1843)"/>
<circle cx="180.329" cy="210.263" r="6.40047" fill="url(#paint4_linear_17_1843)"/>
<path d="M314.716 63.0775L419.476 166.723C420.493 167.729 419.78 169.461 418.351 169.461H152.56C151.131 169.461 150.419 167.729 151.435 166.723L256.195 63.0775C272.406 47.0397 298.505 47.0396 314.716 63.0775Z" stroke="#030F13" stroke-width="11.2008"/>
<path d="M405.144 219.865C392.743 235.866 382.627 230.858 367.942 211.064C349.54 186.263 335.539 187.063 327.539 204.664C317.263 227.27 347.94 239.466 356.741 217.465M417.945 210.264C405.944 208.664 394.344 172.261 369.542 205.864" stroke="url(#paint5_linear_17_1843)" stroke-width="11.2008" stroke-linecap="round"/>
<circle cx="6.40047" cy="6.40047" r="6.40047" transform="matrix(-1 0 0 1 349.141 203.863)" fill="url(#paint6_linear_17_1843)"/>
<circle cx="6.40047" cy="6.40047" r="6.40047" transform="matrix(-1 0 0 1 396.664 203.863)" fill="url(#paint7_linear_17_1843)"/>
<path d="M151.287 251.672V169.493H420.326L420.218 251.675C420.216 253 419.142 254.072 417.818 254.072H153.688C152.362 254.072 151.287 252.998 151.287 251.672Z" stroke="#030F13" stroke-width="11.2008"/>
<path d="M284.655 103.856L284.655 167.061" stroke="#030F13" stroke-width="11.2008" stroke-linecap="round"/>
<path d="M216.812 167.154L251.293 107.43" stroke="#030F13" stroke-width="11.2008" stroke-linecap="round"/>
<path d="M318.841 107.982L352.879 166.937" stroke="#030F13" stroke-width="11.2008" stroke-linecap="round"/>
<ellipse cx="284.657" cy="79.4544" rx="5.60042" ry="11.6009" fill="url(#paint8_linear_17_1843)"/>
<ellipse cx="301.955" cy="76.3244" rx="5.60042" ry="11.6009" transform="rotate(-32 301.955 76.3244)" fill="url(#paint9_linear_17_1843)"/>
<ellipse cx="267.822" cy="76.6712" rx="5.60042" ry="11.6009" transform="rotate(31.4492 267.822 76.6712)" fill="url(#paint10_linear_17_1843)"/>
<path d="M255.054 190.263C255.054 188.054 256.845 186.263 259.054 186.263H311.858C314.068 186.263 315.859 188.054 315.859 190.263V253.468H255.054V190.263Z" fill="url(#paint11_linear_17_1843)"/>
<path d="M259.157 246.415L285.308 220.264L258.254 193.21M311.936 246.415L285.785 220.264L312.839 193.21" stroke="#030F13" stroke-width="6.31929"/>
<rect x="260.322" y="220.263" width="36.1103" height="36.1103" transform="rotate(-45 260.322 220.263)" stroke="#030F13" stroke-width="6.31929"/>
<path d="M259.349 253.852V190.995H311.564V253.852H259.349Z" stroke="#030F13" stroke-width="8.80065"/>
<path d="M246.254 73.4541C259.874 83.114 294.623 96.6379 324.66 73.4541" stroke="#030F13" stroke-width="11.2008" stroke-linecap="round"/>
</g>
<path d="M577.221 203.275L577.436 186.339L577.65 154.824C577.793 150.25 577.865 145.534 577.865 140.674C577.865 135.815 577.865 130.813 577.865 125.667C577.865 120.522 577.865 115.949 577.865 111.947C577.865 107.945 578.007 103.443 578.293 98.4404V97.5829C578.436 96.1536 578.508 94.7244 578.508 93.2952C578.651 91.723 578.722 90.1508 578.722 88.5787C578.865 86.006 579.651 83.219 581.08 80.2176C582.081 78.2167 583.582 76.5016 585.582 75.0724C587.869 73.929 590.085 73.3573 592.228 73.3573C593.372 73.3573 594.372 73.4287 595.23 73.5717C596.23 73.5717 597.159 73.6431 598.017 73.786C599.875 74.0719 601.518 74.9294 602.948 76.3587C603.805 77.0733 604.591 78.2167 605.306 79.7889C605.592 80.6464 605.806 81.5039 605.949 82.3615C606.235 83.0761 606.449 83.8622 606.592 84.7197C606.735 85.7202 606.807 86.6492 606.807 87.5067C606.95 88.3643 607.021 89.2218 607.021 90.0794C607.021 91.0798 606.95 92.0088 606.807 92.8664C606.807 93.581 606.807 94.3671 606.807 95.2246V98.8692L605.52 210.135V212.279C605.52 212.708 605.449 213.28 605.306 213.994C605.306 214.566 605.234 215.281 605.092 216.138C604.806 216.853 604.52 217.639 604.234 218.496C604.091 219.211 603.877 219.997 603.591 220.855C603.162 221.569 602.662 222.284 602.09 222.999C601.661 223.57 601.09 224.142 600.375 224.714C599.232 225.857 597.374 226.643 594.801 227.072C590.942 227.929 587.298 227.572 583.867 226C582.152 224.857 580.937 223.427 580.223 221.712C579.794 221.284 579.58 220.855 579.58 220.426C579.437 220.14 579.294 219.926 579.151 219.783C579.008 219.64 578.865 219.426 578.722 219.14C578.436 218.425 578.222 217.71 578.079 216.996C577.936 216.138 577.865 215.281 577.865 214.423C577.722 213.709 577.579 212.994 577.436 212.279C577.436 211.565 577.364 210.85 577.221 210.135C577.078 208.992 577.078 207.777 577.221 206.491V203.275ZM758.007 209.707C757.864 212.136 757.507 214.709 756.935 217.425C756.507 220.14 755.149 222.355 752.862 224.071C751.147 225.5 749.217 226.357 747.074 226.643C744.93 226.929 742.786 226.786 740.642 226.214C738.641 225.786 736.712 225.071 734.854 224.071C732.996 222.927 731.495 221.569 730.352 219.997C725.492 213.994 720.99 207.849 716.845 201.56C712.843 195.128 708.77 188.697 704.625 182.265L686.617 155.038C684.187 151.179 681.614 146.892 678.899 142.175C676.183 137.316 673.396 132.814 670.538 128.669L669.895 210.564V212.494C669.895 214.78 669.466 217.067 668.608 219.354C667.894 221.498 666.607 223.356 664.749 224.928C663.32 226.071 661.462 226.858 659.175 227.286C655.602 228.001 652.601 227.787 650.171 226.643C647.884 225.5 646.026 223.928 644.597 221.927C643.311 219.926 642.382 217.639 641.81 215.066C641.381 212.351 641.31 209.707 641.596 207.134V203.489L642.025 186.767L642.239 155.681C642.382 151.108 642.453 146.463 642.453 141.746C642.453 136.887 642.453 131.956 642.453 126.954C642.31 120.808 642.31 114.305 642.453 107.445C642.739 100.584 643.025 94.1527 643.311 88.1499C643.597 84.8627 644.383 82.0756 645.669 79.7889C646.241 77.7879 647.741 76.0728 650.171 74.6436C651.743 73.6431 653.744 73 656.174 72.7141C658.747 72.4283 660.962 72.4997 662.82 72.9285C663.535 73.2144 664.249 73.5717 664.964 74.0004C665.678 74.2863 666.393 74.6436 667.108 75.0724C667.822 75.6441 668.465 76.2158 669.037 76.7875C669.752 77.3591 670.395 78.0023 670.967 78.7169C671.681 79.4315 672.324 80.2176 672.896 81.0752C673.468 81.7898 674.039 82.5044 674.611 83.219C675.04 84.0766 675.469 84.8627 675.898 85.5773C676.326 86.2919 676.827 87.0065 677.398 87.7211L679.756 91.1513L729.28 169.188V155.038C729.28 150.465 729.208 145.82 729.065 141.103C729.065 136.244 728.994 131.241 728.851 126.096C728.851 120.093 728.851 113.662 728.851 106.801C728.994 99.9411 729.208 93.5095 729.494 87.5067C729.494 85.077 730.209 82.29 731.638 79.1457C732.352 77.2877 733.567 75.787 735.282 74.6436C736.997 73.5002 738.927 72.7141 741.071 72.2854C743.215 71.8566 745.359 71.8566 747.502 72.2854C749.646 72.7141 751.504 73.5717 753.076 74.858C753.505 75.2868 753.934 75.787 754.363 76.3587C754.791 76.9304 755.149 77.5735 755.435 78.2882C756.149 80.1462 756.578 81.7898 756.721 83.219C757.15 85.22 757.364 87.0065 757.364 88.5787C757.364 106.444 757.364 124.667 757.364 143.247C757.507 161.827 757.65 180.05 757.793 197.915C757.793 199.916 757.864 201.917 758.007 203.918C758.15 205.776 758.15 207.706 758.007 209.707ZM886.21 80.6464C887.496 82.3615 888.282 84.3624 888.568 86.6492C888.568 87.5067 888.497 88.3643 888.354 89.2218C888.354 89.9365 888.282 90.6511 888.139 91.3657C887.997 92.9379 887.068 94.4386 885.352 95.8678C884.352 96.5824 883.066 97.297 881.494 98.0117C880.636 98.2975 879.707 98.5119 878.707 98.6548C877.849 98.6548 876.848 98.7263 875.705 98.8692C874.848 99.155 873.919 99.298 872.918 99.298C871.918 99.298 870.917 99.298 869.917 99.298H860.269L815.463 99.5124V100.156L815.248 135.1C816.392 135.1 817.607 135.1 818.893 135.1C820.322 135.1 822.037 135.029 824.038 134.886C829.755 134.886 834.829 134.886 839.26 134.886C843.833 134.886 848.835 134.957 854.267 135.1H855.553C857.125 135.1 858.697 135.172 860.269 135.315C861.984 135.315 863.699 135.315 865.415 135.315C866.987 135.458 868.559 135.672 870.131 135.958C871.703 136.101 873.275 136.458 874.848 137.03C877.42 137.887 879.278 139.245 880.422 141.103C881.994 142.961 882.78 144.891 882.78 146.892C882.78 147.749 882.78 148.607 882.78 149.464C882.78 150.179 882.637 150.965 882.351 151.822C882.208 152.966 881.279 154.395 879.564 156.11C878.421 157.111 877.063 157.754 875.491 158.04C874.776 158.326 873.919 158.611 872.918 158.897C872.061 159.04 871.132 159.183 870.131 159.326C869.131 159.469 868.13 159.612 867.13 159.755C866.272 159.755 865.272 159.755 864.128 159.755H854.267L814.82 159.969L814.176 209.707V211.422C814.176 212.136 814.105 212.851 813.962 213.566C813.962 214.137 813.891 214.78 813.748 215.495C813.462 216.21 813.176 216.996 812.89 217.853C812.747 218.568 812.533 219.283 812.247 219.997C811.246 221.998 810.317 223.356 809.46 224.071C807.888 225.214 805.958 226 803.671 226.429C799.813 227.286 796.168 226.858 792.738 225.142C792.023 224.714 791.309 224.213 790.594 223.642C790.022 222.927 789.522 222.07 789.093 221.069C788.807 220.497 788.664 220.069 788.664 219.783L788.021 218.496C787.593 217.782 787.307 217.067 787.164 216.353C787.021 215.495 786.878 214.709 786.735 213.994C786.735 213.28 786.664 212.565 786.521 211.851C786.521 211.136 786.449 210.421 786.306 209.707C786.163 208.563 786.163 207.42 786.306 206.277V202.846L786.521 186.124L786.735 155.253C786.878 150.679 786.949 146.034 786.949 141.318C786.949 136.601 786.949 131.742 786.949 126.739C786.806 121.594 786.735 117.021 786.735 113.019C786.878 109.017 787.092 104.658 787.378 99.9411V98.8692C787.521 97.297 787.593 95.8678 787.593 94.5815C787.593 93.1522 787.735 91.723 788.021 90.2938C788.307 87.1494 789.022 84.3624 790.165 81.9327C791.166 79.503 792.595 77.7879 794.453 76.7875C796.597 75.5011 798.884 74.858 801.313 74.858C802.457 74.858 803.386 74.9294 804.1 75.0724V74.858C806.673 74.858 808.745 74.858 810.317 74.858C811.89 74.858 813.39 74.858 814.82 74.858C816.249 74.858 817.821 74.858 819.536 74.858C821.251 74.7151 823.538 74.6436 826.396 74.6436C837.83 74.5007 849.121 74.5007 860.269 74.6436H861.341C862.913 74.7865 864.486 74.858 866.058 74.858C867.773 74.858 869.488 74.9294 871.203 75.0724C872.775 75.0724 874.347 75.2867 875.919 75.7155C877.492 76.0014 879.064 76.4301 880.636 77.0018C883.066 77.7165 884.924 78.9313 886.21 80.6464ZM920.071 203.275L920.286 186.339L920.5 154.824C920.643 150.25 920.714 145.534 920.714 140.674C920.714 135.815 920.714 130.813 920.714 125.667C920.714 120.522 920.714 115.949 920.714 111.947C920.714 107.945 920.857 103.443 921.143 98.4404V97.5829C921.286 96.1536 921.358 94.7244 921.358 93.2952C921.5 91.723 921.572 90.1508 921.572 88.5787C921.715 86.006 922.501 83.219 923.93 80.2176C924.931 78.2167 926.431 76.5016 928.432 75.0724C930.719 73.929 932.934 73.3573 935.078 73.3573C936.222 73.3573 937.222 73.4287 938.08 73.5717C939.08 73.5717 940.009 73.6431 940.867 73.786C942.725 74.0719 944.368 74.9294 945.798 76.3587C946.655 77.0733 947.441 78.2167 948.156 79.7889C948.442 80.6464 948.656 81.5039 948.799 82.3615C949.085 83.0761 949.299 83.8622 949.442 84.7197C949.585 85.7202 949.656 86.6492 949.656 87.5067C949.799 88.3643 949.871 89.2218 949.871 90.0794C949.871 91.0798 949.799 92.0088 949.656 92.8664C949.656 93.581 949.656 94.3671 949.656 95.2246V98.8692L948.37 210.135V212.279C948.37 212.708 948.299 213.28 948.156 213.994C948.156 214.566 948.084 215.281 947.941 216.138C947.656 216.853 947.37 217.639 947.084 218.496C946.941 219.211 946.727 219.997 946.441 220.855C946.012 221.569 945.512 222.284 944.94 222.999C944.511 223.57 943.94 224.142 943.225 224.714C942.082 225.857 940.224 226.643 937.651 227.072C933.792 227.929 930.147 227.572 926.717 226C925.002 224.857 923.787 223.427 923.073 221.712C922.644 221.284 922.429 220.855 922.429 220.426C922.287 220.14 922.144 219.926 922.001 219.783C921.858 219.64 921.715 219.426 921.572 219.14C921.286 218.425 921.072 217.71 920.929 216.996C920.786 216.138 920.714 215.281 920.714 214.423C920.571 213.709 920.429 212.994 920.286 212.279C920.286 211.565 920.214 210.85 920.071 210.135C919.928 208.992 919.928 207.777 920.071 206.491V203.275ZM1010.6 226C1010.6 229.716 1009.24 232.86 1006.53 235.433C1003.95 238.149 1000.81 239.506 997.094 239.506C993.378 239.506 990.163 238.149 987.447 235.433C984.874 232.86 983.588 229.716 983.588 226C983.588 222.284 984.874 219.068 987.447 216.353C990.163 213.637 993.378 212.279 997.094 212.279C1000.81 212.279 1003.95 213.637 1006.53 216.353C1009.24 219.068 1010.6 222.284 1010.6 226ZM1141.63 210.564C1142.78 212.708 1142.85 214.852 1141.85 216.996C1141.13 219.283 1139.92 220.998 1138.2 222.141C1137.34 222.856 1136.56 223.499 1135.84 224.071C1135.13 224.499 1134.34 224.857 1133.49 225.142C1131.91 226 1130.06 226.286 1127.91 226C1127.05 226 1126.27 225.857 1125.55 225.571C1124.84 225.285 1124.12 224.928 1123.41 224.499C1122.69 224.071 1121.91 223.642 1121.05 223.213C1120.34 222.641 1119.62 222.07 1118.91 221.498C1118.05 220.783 1117.26 220.14 1116.55 219.568C1115.83 218.997 1115.19 218.354 1114.62 217.639C1113.91 216.924 1113.26 216.21 1112.69 215.495C1112.12 214.78 1111.55 214.137 1110.98 213.566L1108.4 210.779L1067.24 167.687L1067.88 210.779V212.708C1067.88 213.28 1067.81 213.923 1067.67 214.638C1067.53 215.209 1067.38 215.852 1067.24 216.567C1066.81 218.425 1066.31 220.069 1065.74 221.498C1065.45 222.355 1065.03 223.07 1064.45 223.642C1064.02 224.213 1063.52 224.785 1062.95 225.357C1061.38 226.786 1059.52 227.572 1057.38 227.715C1055.23 228.43 1053.23 228.644 1051.38 228.358C1049.66 228.215 1047.87 227.715 1046.02 226.858C1044.59 226 1043.3 224.571 1042.16 222.57C1041.87 221.998 1041.66 221.641 1041.51 221.498C1041.51 221.355 1041.37 220.855 1041.09 219.997C1040.23 218.568 1039.8 217.139 1039.8 215.709C1039.66 214.852 1039.51 214.066 1039.37 213.351C1039.37 212.637 1039.3 211.851 1039.16 210.993C1039.01 210.421 1038.94 209.85 1038.94 209.278C1038.94 208.706 1038.94 208.135 1038.94 207.563C1039.08 206.848 1039.16 206.277 1039.16 205.848C1039.16 205.276 1039.16 204.633 1039.16 203.918L1038.94 186.982L1038.73 155.467C1038.73 146.32 1038.51 136.458 1038.08 125.882C1037.94 120.737 1037.87 116.163 1037.87 112.161C1037.87 108.159 1037.94 103.657 1038.08 98.6548V97.7973C1038.37 96.2251 1038.51 94.7244 1038.51 93.2952C1038.51 91.723 1038.58 90.2223 1038.73 88.7931C1038.73 85.9346 1039.37 83.0761 1040.66 80.2176C1041.51 78.0738 1043.01 76.3587 1045.16 75.0724C1046.3 74.3577 1047.37 73.929 1048.37 73.786C1049.52 73.5002 1050.73 73.2144 1052.02 72.9285C1053.02 72.9285 1053.95 73 1054.81 73.1429C1055.81 73.2858 1056.74 73.4287 1057.59 73.5717C1059.45 73.8575 1061.17 74.6436 1062.74 75.9299C1063.17 76.3587 1063.52 76.8589 1063.81 77.4306C1064.24 78.0023 1064.6 78.7169 1064.88 79.5745C1065.6 80.7179 1066.1 82.3615 1066.38 84.5053C1066.53 85.3629 1066.6 86.2204 1066.6 87.078C1066.74 87.9355 1066.81 88.8645 1066.81 89.865V98.6548L1067.03 124.81C1069.31 122.809 1071.53 120.737 1073.67 118.593C1075.96 116.449 1078.17 114.162 1080.32 111.732C1084.18 107.73 1087.96 103.872 1091.68 100.156C1095.54 96.2966 1099.4 92.5091 1103.26 88.7931L1103.9 88.1499C1105.04 87.0065 1106.19 85.9346 1107.33 84.9341C1108.62 83.7907 1109.83 82.7188 1110.98 81.7183C1113.12 79.2886 1115.76 77.5735 1118.91 76.5731C1120.91 75.2868 1123.27 74.7865 1125.98 75.0724C1127.27 75.2153 1128.41 75.5011 1129.41 75.9299C1130.56 76.3587 1131.63 76.9304 1132.63 77.645C1133.34 78.3596 1134.06 79.0028 1134.77 79.5745C1135.49 80.0032 1136.06 80.5749 1136.49 81.2896C1137.63 82.29 1138.35 83.7907 1138.63 85.7917C1138.63 87.3638 1138.35 88.7931 1137.77 90.0794C1137.34 90.794 1136.92 91.5086 1136.49 92.2232C1136.06 92.9379 1135.56 93.6525 1134.99 94.3671C1134.27 95.2246 1133.63 96.0107 1133.06 96.7253C1132.49 97.44 1131.84 98.1546 1131.13 98.8692C1130.56 99.5838 1129.91 100.227 1129.2 100.799C1128.63 101.37 1128.05 102.014 1127.48 102.728L1124.7 105.515L1084.61 146.463C1086.75 148.607 1088.96 150.893 1091.25 153.323C1093.68 155.61 1095.97 157.897 1098.11 160.184C1100.26 162.327 1102.26 164.4 1104.11 166.401C1105.97 168.259 1107.54 169.831 1108.83 171.117C1112.69 175.119 1116.41 179.121 1119.98 183.123C1123.55 186.982 1127.05 190.912 1130.48 194.914L1131.13 195.557C1132.27 196.701 1133.34 197.915 1134.34 199.202C1135.34 200.345 1136.27 201.489 1137.13 202.632C1139.27 205.062 1140.77 207.706 1141.63 210.564ZM1275.27 105.73C1273.27 108.731 1271.19 111.661 1269.05 114.519C1266.91 117.378 1264.83 120.236 1262.83 123.095C1253.83 135.958 1244.82 148.75 1235.82 161.47C1226.96 174.19 1218.1 187.053 1209.24 200.059C1211.38 200.059 1213.02 200.059 1214.17 200.059C1215.31 200.059 1216.24 200.059 1216.95 200.059C1217.81 200.059 1218.74 200.059 1219.74 200.059C1220.74 200.059 1222.24 200.131 1224.24 200.274C1226.24 200.274 1228.96 200.274 1232.39 200.274C1235.96 200.274 1240.68 200.274 1246.54 200.274C1250.26 200.274 1253.9 200.274 1257.47 200.274C1261.19 200.274 1264.9 200.417 1268.62 200.702C1269.34 200.845 1270.12 200.988 1270.98 201.131C1271.84 201.131 1272.62 201.274 1273.34 201.56L1274.62 202.203C1274.62 202.203 1275.05 202.346 1275.91 202.632C1277.62 203.632 1279.05 204.776 1280.2 206.062C1282.2 208.921 1282.77 212.136 1281.91 215.709C1281.77 216.71 1281.41 217.639 1280.84 218.496C1280.41 219.211 1279.91 219.854 1279.34 220.426C1278.2 221.569 1276.84 222.355 1275.27 222.784C1273.69 223.642 1272.05 224.142 1270.34 224.285C1269.62 224.428 1268.91 224.571 1268.19 224.714C1267.62 224.714 1266.98 224.714 1266.26 224.714H1188.44C1187.58 224.714 1186.73 224.714 1185.87 224.714C1185.01 224.714 1184.15 224.642 1183.3 224.499C1182.87 224.356 1182.44 224.285 1182.01 224.285C1181.72 224.285 1181.44 224.213 1181.15 224.071C1180.58 223.928 1180.01 223.856 1179.44 223.856C1179.01 223.713 1178.44 223.57 1177.72 223.427C1176.15 222.57 1174.93 221.784 1174.08 221.069C1172.36 219.783 1171.43 218.425 1171.29 216.996V216.781C1171 216.067 1170.79 215.424 1170.65 214.852C1170.65 214.28 1170.72 213.566 1170.86 212.708C1170.86 212.565 1170.79 212.494 1170.65 212.494C1170.65 212.351 1170.65 212.136 1170.65 211.851C1170.65 210.993 1170.79 210.207 1171.08 209.492C1171.36 208.635 1171.65 207.777 1171.93 206.92C1172.22 206.491 1172.43 206.062 1172.58 205.633C1172.86 205.062 1173.22 204.561 1173.65 204.133C1173.93 203.418 1174.29 202.703 1174.72 201.989C1175.29 201.274 1175.72 200.56 1176.01 199.845C1176.29 199.273 1176.58 198.702 1176.86 198.13C1177.29 197.415 1177.65 196.844 1177.94 196.415C1178.51 195.843 1178.94 195.343 1179.22 194.914C1179.65 194.342 1180.01 193.771 1180.29 193.199L1191.44 177.549L1211.38 148.607C1214.52 144.462 1217.6 140.174 1220.6 135.744C1223.74 131.17 1226.96 126.454 1230.25 121.594C1232.68 117.878 1234.89 114.662 1236.89 111.947C1238.89 109.088 1241.04 106.015 1243.32 102.728C1238.32 102.728 1233.6 102.728 1229.17 102.728C1224.89 102.728 1220.6 102.728 1216.31 102.728C1212.02 102.585 1207.52 102.514 1202.8 102.514C1198.23 102.371 1193.16 102.228 1187.58 102.085C1185.58 101.942 1183.22 101.656 1180.51 101.227C1177.94 100.656 1175.79 99.5838 1174.08 98.0117C1172.5 96.5824 1171.58 95.0817 1171.29 93.5095C1170.86 92.0803 1170.65 90.3652 1170.65 88.3643C1170.65 86.0775 1171.29 84.0766 1172.58 82.3615C1174.01 80.5035 1175.79 79.1457 1177.94 78.2882C1180.94 77.1448 1183.87 76.5731 1186.73 76.5731C1188.3 76.4301 1189.87 76.3587 1191.44 76.3587C1193.01 76.3587 1194.51 76.2158 1195.94 75.9299H1197.02C1201.16 75.787 1207.31 75.787 1215.45 75.9299C1223.74 75.9299 1234.1 75.9299 1246.54 75.9299C1248.11 75.9299 1249.75 75.9299 1251.47 75.9299C1253.18 75.787 1254.83 75.787 1256.4 75.9299C1259.69 76.2158 1263.12 76.2872 1266.69 76.1443C1270.41 76.0014 1273.77 76.7875 1276.77 78.5025C1277.62 78.9313 1278.41 79.4315 1279.13 80.0032C1279.84 80.5749 1280.63 81.0752 1281.48 81.5039C1283.2 83.0761 1283.99 84.9341 1283.84 87.078C1283.84 89.2218 1283.34 91.4372 1282.34 93.7239C1281.48 96.0107 1280.34 98.226 1278.91 100.37C1277.48 102.514 1276.27 104.3 1275.27 105.73Z" fill="white"/>
<defs>
<filter id="filter0_f_17_1843" x="320.099" y="67.2939" width="103.528" height="186.734" filterUnits="userSpaceOnUse" color-interpolation-filters="sRGB">
<feFlood flood-opacity="0" result="BackgroundImageFix"/>
<feBlend mode="normal" in="SourceGraphic" in2="BackgroundImageFix" result="shape"/>
<feGaussianBlur stdDeviation="1.08008" result="effect1_foregroundBlur_17_1843"/>
</filter>
<linearGradient id="paint0_linear_17_1843" x1="161.915" y1="20.6844" x2="484.179" y2="233.764" gradientUnits="userSpaceOnUse">
<stop stop-color="#E1A253"/>
<stop offset="1" stop-color="#9D6024"/>
</linearGradient>
<linearGradient id="paint1_linear_17_1843" x1="161.715" y1="20.7348" x2="484.533" y2="233.79" gradientUnits="userSpaceOnUse">
<stop stop-color="#E1A253"/>
<stop offset="1" stop-color="#9D6024"/>
</linearGradient>
<linearGradient id="paint2_linear_17_1843" x1="248.734" y1="215.064" x2="152.327" y2="210.264" gradientUnits="userSpaceOnUse">
<stop stop-color="#B75F03"/>
<stop offset="0.48" stop-color="#E0822B"/>
<stop offset="1" stop-color="#703D18"/>
</linearGradient>
<linearGradient id="paint3_linear_17_1843" x1="227.852" y1="216.664" x2="227.852" y2="203.863" gradientUnits="userSpaceOnUse">
<stop stop-color="#DA7D25"/>
<stop offset="1" stop-color="#9B571F"/>
</linearGradient>
<linearGradient id="paint4_linear_17_1843" x1="180.329" y1="216.664" x2="180.329" y2="203.863" gradientUnits="userSpaceOnUse">
<stop stop-color="#DA7D25"/>
<stop offset="1" stop-color="#9B571F"/>
</linearGradient>
<linearGradient id="paint5_linear_17_1843" x1="321.858" y1="215.065" x2="418.265" y2="210.264" gradientUnits="userSpaceOnUse">
<stop stop-color="#B75F03"/>
<stop offset="0.48" stop-color="#E0822B"/>
<stop offset="1" stop-color="#703D18"/>
</linearGradient>
<linearGradient id="paint6_linear_17_1843" x1="6.40047" y1="12.8009" x2="6.40047" y2="0" gradientUnits="userSpaceOnUse">
<stop stop-color="#DA7D25"/>
<stop offset="1" stop-color="#9B571F"/>
</linearGradient>
<linearGradient id="paint7_linear_17_1843" x1="6.40047" y1="12.8009" x2="6.40047" y2="0" gradientUnits="userSpaceOnUse">
<stop stop-color="#DA7D25"/>
<stop offset="1" stop-color="#9B571F"/>
</linearGradient>
<linearGradient id="paint8_linear_17_1843" x1="284.657" y1="67.8535" x2="284.657" y2="91.0552" gradientUnits="userSpaceOnUse">
<stop stop-color="#9D5C00"/>
<stop offset="1" stop-color="#FFAF40"/>
</linearGradient>
<linearGradient id="paint9_linear_17_1843" x1="301.955" y1="64.7236" x2="301.955" y2="87.9253" gradientUnits="userSpaceOnUse">
<stop stop-color="#9D5C00"/>
<stop offset="1" stop-color="#FFAF40"/>
</linearGradient>
<linearGradient id="paint10_linear_17_1843" x1="267.822" y1="65.0704" x2="267.822" y2="88.2721" gradientUnits="userSpaceOnUse">
<stop stop-color="#9D5C00"/>
<stop offset="1" stop-color="#FFAF40"/>
</linearGradient>
<linearGradient id="paint11_linear_17_1843" x1="267.855" y1="191.463" x2="297.057" y2="253.468" gradientUnits="userSpaceOnUse">
<stop stop-color="#FEDE85"/>
<stop offset="1" stop-color="#BB6726"/>
</linearGradient>
</defs>
</svg>
