<svg width="888" height="637" viewBox="0 0 888 637" fill="none" xmlns="http://www.w3.org/2000/svg">
<path d="M368.812 370.649C368.812 370.649 436.327 400.503 523.876 378.976C605.38 350.019 638.522 246.932 767.126 252.974C694.297 215.184 628.548 240.125 579.537 282.687C537.04 319.592 494.467 366.731 368.812 370.649Z" fill="#41A7F9"/>
<path d="M530.284 309.271C530.284 309.271 478.251 349.126 439.199 356.646C400.146 364.166 328.938 368.541 252.038 314.626C167.745 255.534 104.348 254.017 104.348 254.017C104.348 254.017 160.521 232.908 243.554 269.951C326.588 306.993 363.062 319.93 417.362 321.819C471.662 323.707 530.284 309.271 530.284 309.271Z" fill="#41A7F9"/>
<path fill-rule="evenodd" clip-rule="evenodd" d="M693.401 226.705C641.276 226.174 613.251 245.495 583.953 265.692C540.656 295.54 494.58 327.304 363.834 299.739C313.066 289.035 284.043 277.608 216.19 250.893C206.252 246.98 195.482 242.739 183.688 238.125C198.681 110.233 307.424 11 439.344 11C567.31 11 673.468 104.373 693.401 226.705Z" fill="url(#paint0_linear_17_1886)"/>
<mask id="mask0_17_1886" style="mask-type:alpha" maskUnits="userSpaceOnUse" x="181" y="11" width="513" height="301">
<path fill-rule="evenodd" clip-rule="evenodd" d="M693.401 226.706C642.083 226.204 616.29 245.357 589.121 265.533C548.079 296.011 503.896 328.823 363.835 299.739C311.03 288.774 279.611 276.158 227.752 255.335C214.707 250.097 200.368 244.34 184.07 237.958L183.38 240.875C197.126 111.658 306.48 11 439.343 11C567.31 11 673.468 104.374 693.401 226.706Z" fill="url(#paint1_linear_17_1886)"/>
</mask>
<g mask="url(#mask0_17_1886)">
<path d="M279 218.676C279 213.332 283.332 209 288.676 209H606.311C611.66 209 615.994 213.34 615.987 218.689L615.862 310.337C615.854 315.676 611.524 320 606.185 320H288.676C283.332 320 279 315.668 279 310.324V218.676Z" fill="#FCFFFE"/>
<path d="M406.058 82.4724C428.302 60.4649 464.116 60.4648 486.36 82.4723L613.06 207.824C618.591 213.296 614.716 222.723 606.935 222.723H285.483C277.702 222.723 273.827 213.296 279.358 207.824L406.058 82.4724Z" fill="white"/>
<g filter="url(#filter0_f_17_1886)">
<path d="M555.55 186.438C575.358 216.675 546.519 286.366 546.358 315.614H610.704V213.531L493.623 94.999L490.72 105.643C499.945 119.291 535.742 156.201 555.55 186.438Z" fill="#DFDFDF"/>
</g>
<path d="M301.069 276.909C316.067 296.261 328.302 290.204 346.063 266.266C368.318 236.27 385.251 237.237 394.927 258.525C407.355 285.865 370.253 300.616 359.609 274.006M285.587 265.298C300.102 263.363 314.132 219.337 344.128 259.976" stroke="url(#paint2_linear_17_1886)" stroke-width="13.5465" stroke-linecap="round"/>
<circle cx="376.543" cy="265.297" r="7.74086" fill="url(#paint3_linear_17_1886)"/>
<circle cx="319.067" cy="265.297" r="7.74086" fill="url(#paint4_linear_17_1886)"/>
<path d="M481.597 87.2873L608.296 212.639C609.525 213.855 608.664 215.95 606.935 215.95H285.483C283.754 215.95 282.893 213.855 284.122 212.639L410.821 87.2873C430.426 67.8909 461.992 67.8909 481.597 87.2873Z" stroke="#030F13" stroke-width="13.5465"/>
<path d="M590.963 276.909C575.965 296.261 563.73 290.204 545.969 266.266C523.714 236.27 506.781 237.237 497.105 258.525C484.678 285.865 521.779 300.616 532.423 274.006M606.445 265.298C591.931 263.363 577.9 219.337 547.905 259.976" stroke="url(#paint5_linear_17_1886)" stroke-width="13.5465" stroke-linecap="round"/>
<circle cx="7.74086" cy="7.74086" r="7.74086" transform="matrix(-1 0 0 1 523.231 257.556)" fill="url(#paint6_linear_17_1886)"/>
<circle cx="7.74086" cy="7.74086" r="7.74086" transform="matrix(-1 0 0 1 580.707 257.556)" fill="url(#paint7_linear_17_1886)"/>
<path d="M283.773 315.324V215.773H609.218L609.087 315.328C609.085 316.929 607.786 318.227 606.184 318.227H286.676C285.073 318.227 283.773 316.927 283.773 315.324Z" stroke="#030F13" stroke-width="13.5465"/>
<path d="M445.241 136.605L445.241 213.046" stroke="#030F13" stroke-width="13.5465" stroke-linecap="round"/>
<path d="M363.19 213.159L404.893 140.928" stroke="#030F13" stroke-width="13.5465" stroke-linecap="round"/>
<path d="M486.586 141.596L527.752 212.897" stroke="#030F13" stroke-width="13.5465" stroke-linecap="round"/>
<ellipse cx="445.242" cy="107.094" rx="6.77325" ry="14.0303" fill="url(#paint8_linear_17_1886)"/>
<ellipse cx="466.163" cy="103.308" rx="6.77325" ry="14.0303" transform="rotate(-32 466.163 103.308)" fill="url(#paint9_linear_17_1886)"/>
<ellipse cx="424.882" cy="103.728" rx="6.77325" ry="14.0303" transform="rotate(31.4492 424.882 103.728)" fill="url(#paint10_linear_17_1886)"/>
<path d="M409.441 241.108C409.441 238.436 411.607 236.27 414.279 236.27H478.141C480.813 236.27 482.979 238.436 482.979 241.108V317.549H409.441V241.108Z" fill="url(#paint11_linear_17_1886)"/>
<path d="M414.403 309.02L446.031 277.392L413.311 244.673M478.236 309.02L446.608 277.392L479.327 244.673" stroke="#030F13" stroke-width="7.64268"/>
<rect x="415.812" y="277.391" width="43.6725" height="43.6725" transform="rotate(-45 415.812 277.391)" stroke="#030F13" stroke-width="7.64268"/>
<path d="M414.634 318.014V241.993H477.784V318.014H414.634Z" stroke="#030F13" stroke-width="10.6437"/>
<path d="M398.798 99.8374C415.27 111.52 457.296 127.876 493.623 99.8374" stroke="#030F13" stroke-width="13.5465" stroke-linecap="round"/>
</g>
<path d="M18.4906 589.264L18.751 568.69L19.0114 530.407C19.185 524.851 19.2718 519.121 19.2718 513.218C19.2718 507.315 19.2718 501.239 19.2718 494.988C19.2718 488.738 19.2718 483.182 19.2718 478.321C19.2718 473.459 19.4455 467.99 19.7927 461.914V460.872C19.9663 459.136 20.0531 457.399 20.0531 455.663C20.2268 453.753 20.3136 451.844 20.3136 449.934C20.4872 446.809 21.4421 443.423 23.1783 439.777C24.3936 437.346 26.2167 435.263 28.6473 433.527C31.4253 432.138 34.1164 431.443 36.7207 431.443C38.1096 431.443 39.325 431.53 40.3667 431.704C41.5821 431.704 42.7106 431.79 43.7523 431.964C46.0094 432.311 48.006 433.353 49.7422 435.089C50.7839 435.957 51.7388 437.346 52.6069 439.256C52.9542 440.298 53.2146 441.34 53.3882 442.381C53.7355 443.249 53.9959 444.204 54.1695 445.246C54.3431 446.461 54.43 447.59 54.43 448.632C54.6036 449.673 54.6904 450.715 54.6904 451.757C54.6904 452.972 54.6036 454.101 54.43 455.142C54.43 456.01 54.43 456.965 54.43 458.007V462.434L52.8674 597.598V600.202C52.8674 600.723 52.7806 601.417 52.6069 602.286C52.6069 602.98 52.5201 603.848 52.3465 604.89C51.9993 605.758 51.652 606.713 51.3048 607.755C51.1312 608.623 50.8707 609.578 50.5235 610.619C50.0026 611.487 49.395 612.356 48.7005 613.224C48.1796 613.918 47.4851 614.613 46.617 615.307C45.2281 616.696 42.971 617.651 39.8459 618.172C35.1581 619.214 30.7308 618.779 26.5639 616.87C24.4805 615.481 23.0047 613.744 22.1366 611.661C21.6157 611.14 21.3553 610.619 21.3553 610.098C21.1817 609.751 21.0081 609.491 20.8344 609.317C20.6608 609.144 20.4872 608.883 20.3136 608.536C19.9663 607.668 19.7059 606.8 19.5323 605.932C19.3587 604.89 19.2718 603.848 19.2718 602.806C19.0982 601.938 18.9246 601.07 18.751 600.202C18.751 599.334 18.6642 598.466 18.4906 597.598C18.3169 596.209 18.3169 594.733 18.4906 593.17V589.264ZM238.105 597.077C237.931 600.028 237.497 603.154 236.802 606.452C236.282 609.751 234.632 612.442 231.854 614.526C229.771 616.262 227.427 617.304 224.823 617.651C222.218 617.998 219.614 617.825 217.01 617.13C214.579 616.609 212.235 615.741 209.978 614.526C207.721 613.137 205.898 611.487 204.509 609.578C198.606 602.286 193.137 594.82 188.102 587.181C183.241 579.368 178.292 571.555 173.257 563.742L151.381 530.667C148.43 525.979 145.305 520.771 142.006 515.041C138.707 509.138 135.321 503.669 131.849 498.634L131.068 598.119V600.463C131.068 603.24 130.547 606.018 129.505 608.796C128.637 611.401 127.074 613.658 124.817 615.567C123.081 616.956 120.824 617.911 118.046 618.432C113.706 619.3 110.06 619.04 107.108 617.651C104.33 616.262 102.073 614.352 100.337 611.921C98.7743 609.491 97.6458 606.713 96.9513 603.588C96.4305 600.289 96.3437 597.077 96.6909 593.952V589.524L97.2118 569.211L97.4722 531.448C97.6458 525.893 97.7326 520.25 97.7326 514.52C97.7326 508.617 97.7326 502.627 97.7326 496.551C97.559 489.085 97.559 481.185 97.7326 472.852C98.0799 464.518 98.4271 456.705 98.7743 449.413C99.1216 445.42 100.076 442.034 101.639 439.256C102.334 436.825 104.157 434.742 107.108 433.006C109.018 431.79 111.449 431.009 114.4 430.662C117.525 430.315 120.216 430.401 122.473 430.922C123.342 431.27 124.21 431.704 125.078 432.224C125.946 432.572 126.814 433.006 127.682 433.527C128.55 434.221 129.332 434.916 130.026 435.61C130.894 436.305 131.675 437.086 132.37 437.954C133.238 438.822 134.019 439.777 134.714 440.819C135.408 441.687 136.103 442.555 136.797 443.423C137.318 444.465 137.839 445.42 138.36 446.288C138.881 447.156 139.488 448.024 140.183 448.892L143.048 453.059L203.207 547.856V530.667C203.207 525.111 203.12 519.469 202.946 513.739C202.946 507.836 202.86 501.759 202.686 495.509C202.686 488.217 202.686 480.404 202.686 472.07C202.86 463.737 203.12 455.924 203.467 448.632C203.467 445.68 204.335 442.294 206.072 438.475C206.94 436.218 208.416 434.395 210.499 433.006C212.582 431.617 214.926 430.662 217.531 430.141C220.135 429.62 222.739 429.62 225.344 430.141C227.948 430.662 230.205 431.704 232.115 433.266C232.636 433.787 233.156 434.395 233.677 435.089C234.198 435.784 234.632 436.565 234.979 437.433C235.848 439.69 236.368 441.687 236.542 443.423C237.063 445.854 237.323 448.024 237.323 449.934C237.323 471.636 237.323 493.773 237.323 516.343C237.497 538.914 237.671 561.051 237.844 582.753C237.844 585.184 237.931 587.615 238.105 590.045C238.278 592.302 238.278 594.646 238.105 597.077ZM393.842 440.298C395.405 442.381 396.359 444.812 396.707 447.59C396.707 448.632 396.62 449.673 396.446 450.715C396.446 451.583 396.359 452.451 396.186 453.319C396.012 455.229 394.884 457.052 392.8 458.788C391.585 459.656 390.022 460.525 388.113 461.393C387.071 461.74 385.942 462 384.727 462.174C383.685 462.174 382.47 462.261 381.081 462.434C380.039 462.782 378.911 462.955 377.695 462.955C376.48 462.955 375.265 462.955 374.049 462.955H362.33L307.9 463.216V463.997L307.64 506.447C309.028 506.447 310.504 506.447 312.067 506.447C313.803 506.447 315.886 506.36 318.317 506.187C325.262 506.187 331.425 506.187 336.808 506.187C342.364 506.187 348.44 506.274 355.038 506.447H356.6C358.51 506.447 360.42 506.534 362.33 506.708C364.413 506.708 366.497 506.708 368.58 506.708C370.49 506.881 372.4 507.142 374.31 507.489C376.22 507.662 378.129 508.097 380.039 508.791C383.164 509.833 385.421 511.482 386.81 513.739C388.72 515.996 389.675 518.34 389.675 520.771C389.675 521.813 389.675 522.854 389.675 523.896C389.675 524.764 389.501 525.719 389.154 526.761C388.981 528.15 387.852 529.886 385.769 531.969C384.38 533.185 382.73 533.966 380.82 534.313C379.952 534.66 378.911 535.008 377.695 535.355C376.654 535.529 375.525 535.702 374.31 535.876C373.094 536.049 371.879 536.223 370.664 536.397C369.622 536.397 368.407 536.397 367.018 536.397H355.038L307.119 536.657L306.337 597.077V599.16C306.337 600.028 306.251 600.897 306.077 601.765C306.077 602.459 305.99 603.24 305.817 604.109C305.469 604.977 305.122 605.932 304.775 606.973C304.601 607.841 304.341 608.709 303.993 609.578C302.778 612.008 301.65 613.658 300.608 614.526C298.698 615.915 296.354 616.87 293.576 617.39C288.889 618.432 284.461 617.911 280.294 615.828C279.426 615.307 278.558 614.699 277.69 614.005C276.996 613.137 276.388 612.095 275.867 610.88C275.52 610.185 275.346 609.664 275.346 609.317L274.565 607.755C274.044 606.886 273.697 606.018 273.523 605.15C273.35 604.109 273.176 603.154 273.002 602.286C273.002 601.417 272.915 600.549 272.742 599.681C272.742 598.813 272.655 597.945 272.481 597.077C272.308 595.688 272.308 594.299 272.481 592.91V588.743L272.742 568.43L273.002 530.928C273.176 525.372 273.263 519.729 273.263 514C273.263 508.27 273.263 502.367 273.263 496.29C273.089 490.04 273.002 484.484 273.002 479.623C273.176 474.761 273.436 469.466 273.784 463.737V462.434C273.957 460.525 274.044 458.788 274.044 457.226C274.044 455.49 274.218 453.753 274.565 452.017C274.912 448.198 275.78 444.812 277.169 441.86C278.385 438.909 280.121 436.825 282.378 435.61C284.982 434.047 287.76 433.266 290.712 433.266C292.101 433.266 293.229 433.353 294.097 433.527V433.266C297.222 433.266 299.74 433.266 301.65 433.266C303.559 433.266 305.382 433.266 307.119 433.266C308.855 433.266 310.765 433.266 312.848 433.266C314.932 433.093 317.709 433.006 321.182 433.006C335.072 432.832 348.788 432.832 362.33 433.006H363.632C365.542 433.179 367.452 433.266 369.362 433.266C371.445 433.266 373.528 433.353 375.612 433.527C377.522 433.527 379.432 433.787 381.341 434.308C383.251 434.655 385.161 435.176 387.071 435.87C390.022 436.739 392.279 438.214 393.842 440.298ZM434.976 589.264L435.236 568.69L435.497 530.407C435.67 524.851 435.757 519.121 435.757 513.218C435.757 507.315 435.757 501.239 435.757 494.988C435.757 488.738 435.757 483.182 435.757 478.321C435.757 473.459 435.931 467.99 436.278 461.914V460.872C436.451 459.136 436.538 457.399 436.538 455.663C436.712 453.753 436.799 451.844 436.799 449.934C436.972 446.809 437.927 443.423 439.663 439.777C440.879 437.346 442.702 435.263 445.133 433.527C447.91 432.138 450.602 431.443 453.206 431.443C454.595 431.443 455.81 431.53 456.852 431.704C458.067 431.704 459.196 431.79 460.237 431.964C462.495 432.311 464.491 433.353 466.227 435.089C467.269 435.957 468.224 437.346 469.092 439.256C469.439 440.298 469.7 441.34 469.873 442.381C470.221 443.249 470.481 444.204 470.655 445.246C470.828 446.461 470.915 447.59 470.915 448.632C471.089 449.673 471.176 450.715 471.176 451.757C471.176 452.972 471.089 454.101 470.915 455.142C470.915 456.01 470.915 456.965 470.915 458.007V462.434L469.353 597.598V600.202C469.353 600.723 469.266 601.417 469.092 602.286C469.092 602.98 469.005 603.848 468.832 604.89C468.484 605.758 468.137 606.713 467.79 607.755C467.616 608.623 467.356 609.578 467.009 610.619C466.488 611.487 465.88 612.356 465.186 613.224C464.665 613.918 463.97 614.613 463.102 615.307C461.713 616.696 459.456 617.651 456.331 618.172C451.643 619.214 447.216 618.779 443.049 616.87C440.966 615.481 439.49 613.744 438.622 611.661C438.101 611.14 437.84 610.619 437.84 610.098C437.667 609.751 437.493 609.491 437.32 609.317C437.146 609.144 436.972 608.883 436.799 608.536C436.451 607.668 436.191 606.8 436.017 605.932C435.844 604.89 435.757 603.848 435.757 602.806C435.583 601.938 435.41 601.07 435.236 600.202C435.236 599.334 435.149 598.466 434.976 597.598C434.802 596.209 434.802 594.733 434.976 593.17V589.264ZM544.949 616.87C544.949 621.384 543.299 625.203 540 628.329C536.875 631.627 533.056 633.277 528.541 633.277C524.027 633.277 520.121 631.627 516.822 628.329C513.697 625.203 512.134 621.384 512.134 616.87C512.134 612.356 513.697 608.449 516.822 605.15C520.121 601.851 524.027 600.202 528.541 600.202C533.056 600.202 536.875 601.851 540 605.15C543.299 608.449 544.949 612.356 544.949 616.87ZM704.122 598.119C705.511 600.723 705.598 603.327 704.383 605.932C703.515 608.709 702.039 610.793 699.956 612.182C698.914 613.05 697.959 613.831 697.091 614.526C696.223 615.047 695.268 615.481 694.226 615.828C692.316 616.87 690.059 617.217 687.455 616.87C686.413 616.87 685.458 616.696 684.59 616.349C683.722 616.002 682.854 615.567 681.986 615.047C681.118 614.526 680.163 614.005 679.121 613.484C678.253 612.79 677.385 612.095 676.517 611.401C675.475 610.532 674.52 609.751 673.652 609.057C672.784 608.362 672.003 607.581 671.308 606.713C670.44 605.845 669.659 604.977 668.964 604.109C668.27 603.24 667.575 602.459 666.881 601.765L663.756 598.379L613.753 546.033L614.534 598.379V600.723C614.534 601.417 614.448 602.199 614.274 603.067C614.1 603.761 613.927 604.543 613.753 605.411C613.232 607.668 612.625 609.664 611.93 611.401C611.583 612.442 611.062 613.31 610.367 614.005C609.847 614.699 609.239 615.394 608.544 616.088C606.635 617.825 604.378 618.779 601.773 618.953C599.169 619.821 596.738 620.082 594.481 619.734C592.398 619.561 590.227 618.953 587.97 617.911C586.234 616.87 584.672 615.133 583.283 612.703C582.935 612.008 582.675 611.574 582.501 611.401C582.501 611.227 582.328 610.619 581.981 609.578C580.939 607.841 580.418 606.105 580.418 604.369C580.244 603.327 580.071 602.372 579.897 601.504C579.897 600.636 579.81 599.681 579.637 598.64C579.463 597.945 579.376 597.251 579.376 596.556C579.376 595.862 579.376 595.167 579.376 594.473C579.55 593.605 579.637 592.91 579.637 592.389C579.637 591.695 579.637 590.913 579.637 590.045L579.376 569.471L579.116 531.188C579.116 520.076 578.855 508.097 578.335 495.249C578.161 488.998 578.074 483.442 578.074 478.581C578.074 473.72 578.161 468.251 578.335 462.174V461.132C578.682 459.222 578.855 457.399 578.855 455.663C578.855 453.753 578.942 451.93 579.116 450.194C579.116 446.722 579.897 443.249 581.46 439.777C582.501 437.173 584.324 435.089 586.929 433.527C588.318 432.659 589.62 432.138 590.835 431.964C592.224 431.617 593.7 431.27 595.262 430.922C596.478 430.922 597.606 431.009 598.648 431.183C599.863 431.356 600.992 431.53 602.034 431.704C604.291 432.051 606.374 433.006 608.284 434.568C608.805 435.089 609.239 435.697 609.586 436.391C610.107 437.086 610.541 437.954 610.888 438.996C611.756 440.385 612.364 442.381 612.711 444.986C612.885 446.027 612.972 447.069 612.972 448.111C613.145 449.152 613.232 450.281 613.232 451.496V462.174L613.493 493.946C616.271 491.516 618.962 488.998 621.566 486.394C624.344 483.79 627.035 481.012 629.639 478.06C634.327 473.199 638.928 468.511 643.442 463.997C648.13 459.309 652.818 454.708 657.505 450.194L658.287 449.413C659.676 448.024 661.065 446.722 662.454 445.506C664.016 444.117 665.492 442.815 666.881 441.6C669.485 438.648 672.697 436.565 676.517 435.35C678.947 433.787 681.812 433.179 685.111 433.527C686.674 433.7 688.063 434.047 689.278 434.568C690.667 435.089 691.969 435.784 693.184 436.652C694.052 437.52 694.921 438.301 695.789 438.996C696.657 439.517 697.351 440.211 697.872 441.079C699.261 442.294 700.129 444.117 700.476 446.548C700.476 448.458 700.129 450.194 699.435 451.757C698.914 452.625 698.393 453.493 697.872 454.361C697.351 455.229 696.744 456.097 696.049 456.965C695.181 458.007 694.4 458.962 693.705 459.83C693.011 460.698 692.229 461.566 691.361 462.434C690.667 463.303 689.886 464.084 689.017 464.778C688.323 465.473 687.628 466.254 686.934 467.122L683.548 470.508L634.848 520.25C637.452 522.854 640.143 525.632 642.921 528.584C645.873 531.362 648.651 534.14 651.255 536.917C653.859 539.522 656.29 542.039 658.547 544.47C660.804 546.727 662.714 548.637 664.277 550.199C668.964 555.061 673.478 559.922 677.819 564.784C682.159 569.471 686.413 574.246 690.58 579.107L691.361 579.889C692.75 581.277 694.052 582.753 695.268 584.316C696.483 585.705 697.612 587.094 698.653 588.483C701.258 591.434 703.081 594.646 704.122 598.119ZM866.458 470.768C864.027 474.414 861.51 477.973 858.906 481.446C856.301 484.918 853.784 488.391 851.353 491.863C840.415 507.489 829.477 523.028 818.539 538.48C807.774 553.932 797.01 569.558 786.245 585.358C788.85 585.358 790.846 585.358 792.235 585.358C793.624 585.358 794.753 585.358 795.621 585.358C796.663 585.358 797.791 585.358 799.007 585.358C800.222 585.358 802.045 585.444 804.476 585.618C806.906 585.618 810.205 585.618 814.372 585.618C818.712 585.618 824.442 585.618 831.56 585.618C836.075 585.618 840.502 585.618 844.842 585.618C849.356 585.618 853.871 585.792 858.385 586.139C859.253 586.312 860.208 586.486 861.249 586.66C862.291 586.66 863.246 586.833 864.114 587.181L865.677 587.962C865.677 587.962 866.198 588.135 867.239 588.483C869.323 589.698 871.059 591.087 872.448 592.65C874.879 596.122 875.573 600.028 874.531 604.369C874.358 605.584 873.924 606.713 873.229 607.755C872.708 608.623 872.101 609.404 871.406 610.098C870.017 611.487 868.368 612.442 866.458 612.963C864.548 614.005 862.552 614.613 860.468 614.786C859.6 614.96 858.732 615.133 857.864 615.307C857.169 615.307 856.388 615.307 855.52 615.307H760.984C759.942 615.307 758.9 615.307 757.859 615.307C756.817 615.307 755.775 615.22 754.733 615.047C754.213 614.873 753.692 614.786 753.171 614.786C752.824 614.786 752.476 614.699 752.129 614.526C751.435 614.352 750.74 614.265 750.046 614.265C749.525 614.092 748.83 613.918 747.962 613.744C746.052 612.703 744.577 611.748 743.535 610.88C741.451 609.317 740.323 607.668 740.149 605.932V605.671C739.802 604.803 739.542 604.022 739.368 603.327C739.368 602.633 739.455 601.765 739.628 600.723C739.628 600.549 739.542 600.463 739.368 600.463C739.368 600.289 739.368 600.028 739.368 599.681C739.368 598.64 739.542 597.685 739.889 596.816C740.236 595.775 740.583 594.733 740.931 593.691C741.278 593.17 741.538 592.65 741.712 592.129C742.059 591.434 742.493 590.827 743.014 590.306C743.361 589.438 743.795 588.57 744.316 587.701C745.011 586.833 745.532 585.965 745.879 585.097C746.226 584.403 746.573 583.708 746.921 583.014C747.441 582.146 747.875 581.451 748.223 580.93C748.917 580.236 749.438 579.628 749.785 579.107C750.306 578.413 750.74 577.718 751.087 577.024L764.63 558.012L788.85 522.854C792.669 517.819 796.402 512.611 800.048 507.228C803.868 501.673 807.774 495.943 811.768 490.04C814.719 485.526 817.41 481.619 819.841 478.321C822.272 474.848 824.876 471.115 827.654 467.122C821.577 467.122 815.848 467.122 810.466 467.122C805.257 467.122 800.048 467.122 794.84 467.122C789.631 466.949 784.162 466.862 778.433 466.862C772.877 466.688 766.713 466.514 759.942 466.341C757.511 466.167 754.647 465.82 751.348 465.299C748.223 464.605 745.618 463.303 743.535 461.393C741.625 459.656 740.497 457.833 740.149 455.924C739.628 454.187 739.368 452.104 739.368 449.673C739.368 446.895 740.149 444.465 741.712 442.381C743.448 440.124 745.618 438.475 748.223 437.433C751.869 436.044 755.428 435.35 758.9 435.35C760.81 435.176 762.72 435.089 764.63 435.089C766.54 435.089 768.363 434.916 770.099 434.568H771.401C776.436 434.395 783.902 434.395 793.798 434.568C803.868 434.568 816.455 434.568 831.56 434.568C833.47 434.568 835.467 434.568 837.55 434.568C839.634 434.395 841.63 434.395 843.54 434.568C847.533 434.916 851.7 435.002 856.041 434.829C860.555 434.655 864.635 435.61 868.281 437.694C869.323 438.214 870.278 438.822 871.146 439.517C872.014 440.211 872.969 440.819 874.011 441.34C876.094 443.249 877.049 445.506 876.875 448.111C876.875 450.715 876.268 453.406 875.052 456.184C874.011 458.962 872.622 461.653 870.885 464.257C869.149 466.862 867.673 469.032 866.458 470.768Z" fill="#030F13"/>
<defs>
<filter id="filter0_f_17_1886" x="488.108" y="92.3865" width="125.208" height="225.839" filterUnits="userSpaceOnUse" color-interpolation-filters="sRGB">
<feFlood flood-opacity="0" result="BackgroundImageFix"/>
<feBlend mode="normal" in="SourceGraphic" in2="BackgroundImageFix" result="shape"/>
<feGaussianBlur stdDeviation="1.30627" result="effect1_foregroundBlur_17_1886"/>
</filter>
<linearGradient id="paint0_linear_17_1886" x1="296.795" y1="36.0161" x2="686.548" y2="293.719" gradientUnits="userSpaceOnUse">
<stop stop-color="#E1A253"/>
<stop offset="1" stop-color="#9D6024"/>
</linearGradient>
<linearGradient id="paint1_linear_17_1886" x1="296.556" y1="36.0771" x2="686.977" y2="293.75" gradientUnits="userSpaceOnUse">
<stop stop-color="#E1A253"/>
<stop offset="1" stop-color="#9D6024"/>
</linearGradient>
<linearGradient id="paint2_linear_17_1886" x1="401.797" y1="271.104" x2="285.201" y2="265.298" gradientUnits="userSpaceOnUse">
<stop stop-color="#B75F03"/>
<stop offset="0.48" stop-color="#E0822B"/>
<stop offset="1" stop-color="#703D18"/>
</linearGradient>
<linearGradient id="paint3_linear_17_1886" x1="376.543" y1="273.038" x2="376.543" y2="257.556" gradientUnits="userSpaceOnUse">
<stop stop-color="#DA7D25"/>
<stop offset="1" stop-color="#9B571F"/>
</linearGradient>
<linearGradient id="paint4_linear_17_1886" x1="319.067" y1="273.038" x2="319.067" y2="257.556" gradientUnits="userSpaceOnUse">
<stop stop-color="#DA7D25"/>
<stop offset="1" stop-color="#9B571F"/>
</linearGradient>
<linearGradient id="paint5_linear_17_1886" x1="490.235" y1="271.104" x2="606.832" y2="265.298" gradientUnits="userSpaceOnUse">
<stop stop-color="#B75F03"/>
<stop offset="0.48" stop-color="#E0822B"/>
<stop offset="1" stop-color="#703D18"/>
</linearGradient>
<linearGradient id="paint6_linear_17_1886" x1="7.74086" y1="15.4817" x2="7.74086" y2="0" gradientUnits="userSpaceOnUse">
<stop stop-color="#DA7D25"/>
<stop offset="1" stop-color="#9B571F"/>
</linearGradient>
<linearGradient id="paint7_linear_17_1886" x1="7.74086" y1="15.4817" x2="7.74086" y2="0" gradientUnits="userSpaceOnUse">
<stop stop-color="#DA7D25"/>
<stop offset="1" stop-color="#9B571F"/>
</linearGradient>
<linearGradient id="paint8_linear_17_1886" x1="445.242" y1="93.0635" x2="445.242" y2="121.124" gradientUnits="userSpaceOnUse">
<stop stop-color="#9D5C00"/>
<stop offset="1" stop-color="#FFAF40"/>
</linearGradient>
<linearGradient id="paint9_linear_17_1886" x1="466.163" y1="89.2778" x2="466.163" y2="117.338" gradientUnits="userSpaceOnUse">
<stop stop-color="#9D5C00"/>
<stop offset="1" stop-color="#FFAF40"/>
</linearGradient>
<linearGradient id="paint10_linear_17_1886" x1="424.882" y1="89.698" x2="424.882" y2="117.759" gradientUnits="userSpaceOnUse">
<stop stop-color="#9D5C00"/>
<stop offset="1" stop-color="#FFAF40"/>
</linearGradient>
<linearGradient id="paint11_linear_17_1886" x1="424.923" y1="242.559" x2="460.24" y2="317.549" gradientUnits="userSpaceOnUse">
<stop stop-color="#FEDE85"/>
<stop offset="1" stop-color="#BB6726"/>
</linearGradient>
</defs>
</svg>
